<svg width="476" height="448" viewBox="0 0 476 448" fill="none" xmlns="http://www.w3.org/2000/svg">
<path d="M450.67 325V68.6663C450.67 42.9997 430.003 24.3333 404.67 26.3333H403.337C358.67 30 291.003 53.0003 253.003 76.667L249.337 79.0007C243.337 82.6673 233.003 82.6673 226.67 79.0007L221.337 75.667C183.67 52.0003 116.004 29.6663 71.3373 25.9997C46.004 23.9997 25.3373 43.0003 25.3373 68.3337V325C25.3373 345.333 42.0033 364.667 62.3367 367L68.3367 368C114.337 374 185.67 397.667 226.337 420L227.337 420.333C233.003 423.667 242.337 423.667 247.67 420.333C288.337 397.667 360.003 374.333 406.337 368L413.337 367C434.003 364.667 450.67 345.667 450.67 325Z" stroke="#8A93AF" stroke-width="50" stroke-linecap="round" stroke-linejoin="round"/>
<path d="M238 86.0033V404.67" stroke="#8A93AF" stroke-width="50" stroke-linecap="round" stroke-linejoin="round"/>
</svg>
