<svg width="800" height="800" viewBox="0 0 800 800" fill="none" xmlns="http://www.w3.org/2000/svg">
<path d="M429.227 538.94C434.307 525.117 454.583 525.117 459.663 538.94L473.553 576.743C475.18 581.167 478.79 584.65 483.377 586.217L522.58 599.613C536.917 604.51 536.917 624.06 522.58 628.96L483.377 642.353C478.79 643.923 475.18 647.403 473.553 651.83L459.663 689.63C454.583 703.457 434.307 703.457 429.227 689.63L415.337 651.83C413.71 647.403 410.1 643.923 405.51 642.353L366.307 628.96C351.97 624.06 351.97 604.51 366.307 599.613L405.51 586.217C410.1 584.65 413.71 581.167 415.337 576.743L429.227 538.94Z" stroke="#20387E" stroke-width="50" stroke-linejoin="round"/>
<path d="M487.98 115.759C495.703 94.747 526.52 94.747 534.24 115.759L560.703 187.777C563.177 194.503 568.663 199.795 575.637 202.178L650.323 227.696C672.113 235.142 672.113 264.858 650.323 272.304L575.637 297.822C568.663 300.205 563.177 305.497 560.703 312.223L534.24 384.24C526.52 405.253 495.703 405.253 487.98 384.24L461.517 312.223C459.047 305.497 453.56 300.205 446.583 297.822L371.9 272.304C350.107 264.858 350.107 235.142 371.9 227.696L446.583 202.178C453.56 199.795 459.047 194.503 461.517 187.777L487.98 115.759Z" stroke="#20387E" stroke-width="50" stroke-linejoin="round"/>
<path d="M216.214 312.096C221.929 295.968 244.738 295.968 250.453 312.096L266.08 356.2C267.909 361.363 271.971 365.423 277.134 367.253L321.237 382.88C337.367 388.597 337.367 411.403 321.237 417.12L277.134 432.747C271.971 434.577 267.909 438.637 266.08 443.8L250.453 487.903C244.738 504.033 221.929 504.033 216.214 487.903L200.587 443.8C198.757 438.637 194.696 434.577 189.533 432.747L145.43 417.12C129.301 411.403 129.301 388.597 145.43 382.88L189.533 367.253C194.696 365.423 198.757 361.363 200.587 356.2L216.214 312.096Z" stroke="#20387E" stroke-width="50" stroke-linejoin="round"/>
</svg>
