<svg data-v-fde0c5aa="" xmlns="http://www.w3.org/2000/svg" viewBox="0 0 300 300" class="iconLeftSlogan"><!----><defs data-v-fde0c5aa=""><!----></defs><rect data-v-fde0c5aa="" fill="#EAE3EE" x="0" y="0" width="300px" height="300px" class="logo-background-square"></rect><defs data-v-fde0c5aa=""><!----></defs><g data-v-fde0c5aa="" id="a4c405e2-a4c7-4aba-94fd-456473f0c3e2" fill="#141414" transform="matrix(2.391703886319569,0,0,2.391703886319569,109.49007199333948,117.86477968817695)"><path d="M1.30 14.35L5.74 14.35C7.18 14.35 8.26 13.13 8.26 11.52C8.26 9.90 7.04 9.30 6.34 9.25L6.34 9.17C6.99 9.07 7.92 8.55 7.92 7.10C7.92 5.57 6.93 4.58 5.32 4.58L1.30 4.58ZM2.48 9.81L5.38 9.81C6.38 9.81 7 10.35 7 11.33L7 11.80C7 12.78 6.38 13.31 5.38 13.31L2.48 13.31ZM2.48 5.61L5.18 5.61C6.10 5.61 6.66 6.10 6.66 6.97L6.66 7.45C6.66 8.32 6.10 8.81 5.18 8.81L2.48 8.81ZM13.06 14.52C14.99 14.52 16.32 13.03 16.32 10.74C16.32 8.44 14.99 6.96 13.06 6.96C11.13 6.96 9.80 8.44 9.80 10.74C9.80 13.03 11.13 14.52 13.06 14.52ZM13.06 13.52C11.86 13.52 11.00 12.78 11.00 11.26L11.00 10.22C11.00 8.69 11.86 7.95 13.06 7.95C14.27 7.95 15.12 8.69 15.12 10.22L15.12 11.26C15.12 12.78 14.27 13.52 13.06 13.52ZM20.90 14.52C22.83 14.52 24.16 13.03 24.16 10.74C24.16 8.44 22.83 6.96 20.90 6.96C18.97 6.96 17.64 8.44 17.64 10.74C17.64 13.03 18.97 14.52 20.90 14.52ZM20.90 13.52C19.70 13.52 18.84 12.78 18.84 11.26L18.84 10.22C18.84 8.69 19.70 7.95 20.90 7.95C22.11 7.95 22.96 8.69 22.96 10.22L22.96 11.26C22.96 12.78 22.11 13.52 20.90 13.52ZM26.01 14.35L27.13 14.35L27.13 11.77L28.21 10.67L30.60 14.35L31.96 14.35L29.02 9.98L31.70 7.13L30.34 7.13L28.29 9.32L27.19 10.56L27.13 10.56L27.13 3.99L26.01 3.99ZM33.50 14.35L34.65 14.35L34.65 6.12L34.72 6.12L35.55 7.76L37.88 12.01L40.22 7.76L41.05 6.12L41.12 6.12L41.12 14.35L42.27 14.35L42.27 4.58L40.75 4.58L37.94 9.84L37.87 9.84L35.07 4.58L33.50 4.58ZM50.64 14.35L50.64 13.37L49.81 13.37L49.81 9.39C49.81 7.87 48.78 6.96 47.04 6.96C45.74 6.96 44.87 7.60 44.48 8.37L45.15 9.00C45.54 8.34 46.12 7.92 46.98 7.92C48.13 7.92 48.69 8.48 48.69 9.51L48.69 10.22L47.26 10.22C45.16 10.22 44.18 10.98 44.18 12.33C44.18 13.68 45.08 14.52 46.61 14.52C47.61 14.52 48.38 14.06 48.69 13.17L48.76 13.17C48.85 13.85 49.18 14.35 50.01 14.35ZM46.79 13.57C45.92 13.57 45.36 13.16 45.36 12.45L45.36 12.15C45.36 11.45 45.93 11.06 47.21 11.06L48.69 11.06L48.69 12.25C48.69 12.99 47.89 13.57 46.79 13.57ZM55.23 14.35L55.23 13.37L53.76 13.37L53.76 8.11L55.34 8.11L55.34 7.13L53.76 7.13L53.76 5.12L52.75 5.12L52.75 6.47C52.75 6.96 52.60 7.13 52.12 7.13L51.45 7.13L51.45 8.11L52.64 8.11L52.64 13.16C52.64 13.86 53.06 14.35 53.83 14.35ZM59.81 14.52C61.17 14.52 62.20 13.85 62.66 12.87L61.87 12.29C61.49 13.09 60.79 13.54 59.88 13.54C58.53 13.54 57.74 12.60 57.74 11.35L57.74 11.02L62.93 11.02L62.93 10.49C62.93 8.44 61.74 6.96 59.81 6.96C57.85 6.96 56.56 8.44 56.56 10.74C56.56 13.03 57.85 14.52 59.81 14.52ZM59.81 7.90C60.96 7.90 61.73 8.75 61.73 10.02L61.73 10.18L57.74 10.18L57.74 10.08C57.74 8.82 58.59 7.90 59.81 7.90Z"></path></g><defs data-v-fde0c5aa=""><linearGradient data-v-fde0c5aa="" gradientTransform="rotate(25)" id="a9ffecc7-1af4-4b13-a36a-efcf29e84231" x1="0%" y1="0%" x2="100%" y2="0%"><stop data-v-fde0c5aa="" offset="0%" stop-color="#4B0F69" stop-opacity="1"></stop><stop data-v-fde0c5aa="" offset="100%" stop-color="#B169D4" stop-opacity="1"></stop></linearGradient></defs><g data-v-fde0c5aa="" id="d0b0af57-a524-4290-919c-63da06e413f8" stroke="none" fill="url(#a9ffecc7-1af4-4b13-a36a-efcf29e84231)" transform="matrix(1.8624777166096746,0,0,1.8624777166096746,40,118.15163077954499)"><circle cx="25.044" cy="25.043" r="6.956"></circle><circle cx="6.956" cy="25.043" r="6.956"></circle><path d="M.172 2.201H13.74v13.568H.172zM18.432 2.201H32v13.568H18.432z"></path></g><defs data-v-fde0c5aa=""><!----></defs><g data-v-fde0c5aa="" id="3a83b8bf-231f-4a33-94a3-3c249b95d70c" fill="#141414" transform="matrix(0.6428571563720528,0,0,0.6428571563720528,112.53500121491446,160.7280359678123)"><path d="M0.10 3.44C0.10 3.68 0.18 3.70 0.35 3.70L0.76 3.70C0.88 3.70 3.14 7.74 3.54 8.50C3.60 8.60 3.64 8.65 3.64 8.81C3.64 10.50 3.63 12.18 3.50 12.18L2.79 12.18C2.56 12.18 2.52 12.19 2.52 12.39C2.52 12.63 2.53 12.68 2.73 12.68C2.93 12.68 3.74 12.64 4.33 12.64C5.15 12.64 5.68 12.68 6.01 12.68C6.17 12.68 6.20 12.61 6.20 12.40C6.20 12.24 6.17 12.18 6.01 12.18L5.04 12.18C4.94 12.18 4.91 9.72 4.91 8.22C4.91 8.18 4.91 8.15 4.96 8.09C5.50 7.22 7.45 3.70 7.52 3.70L7.99 3.70C8.16 3.70 8.26 3.68 8.26 3.44C8.26 3.22 8.18 3.19 7.99 3.19C7.77 3.19 7.53 3.23 6.93 3.23C6.34 3.23 6.01 3.19 5.84 3.19C5.64 3.19 5.60 3.25 5.60 3.49C5.60 3.68 5.67 3.70 5.89 3.70L6.62 3.70C6.64 3.70 6.65 3.71 6.65 3.74C6.65 4.05 5.08 6.99 4.70 7.71C4.59 7.92 4.59 7.88 4.48 7.67C4.07 6.89 2.79 4.56 2.49 3.85C2.44 3.71 2.42 3.70 2.60 3.70L3.43 3.70C3.65 3.70 3.68 3.68 3.68 3.49C3.68 3.25 3.64 3.19 3.49 3.19C3.25 3.19 2.63 3.23 1.83 3.23C1.02 3.23 0.53 3.19 0.35 3.19C0.17 3.19 0.10 3.21 0.10 3.44ZM15.39 8.15C15.39 11.17 17.72 12.80 19.98 12.80C22.76 12.80 24.74 10.89 24.74 8.06C24.74 5.33 22.99 3.11 20.19 3.11C17.58 3.11 15.39 5.10 15.39 8.15ZM16.79 7.77C16.79 5.64 18.07 3.58 20.05 3.58C22.29 3.58 23.37 5.81 23.37 7.94C23.37 10.08 22.26 12.32 19.99 12.32C18.00 12.32 16.79 10.28 16.79 7.77ZM32.84 3.51C32.84 3.75 32.93 3.77 33.10 3.77L33.63 3.77C33.68 3.77 33.68 4.12 33.68 4.55C33.68 5.66 33.67 8.96 33.67 9.42C33.67 11.13 33.92 12.80 36.78 12.80C37.86 12.80 39.02 12.38 39.68 12.00C39.93 11.86 40.22 11.72 40.31 11.72C40.57 11.72 40.84 12.74 41.17 12.74C41.50 12.74 41.51 12.35 41.51 12.25C41.51 11.96 41.57 10.08 41.61 8.16C41.66 6.12 41.65 3.77 41.76 3.77L42.08 3.77C42.31 3.77 42.38 3.75 42.38 3.56C42.38 3.32 42.34 3.26 42.14 3.26C42 3.26 41.47 3.30 41.05 3.30C40.63 3.30 39.83 3.26 39.61 3.26C39.42 3.26 39.33 3.28 39.33 3.51C39.33 3.75 39.44 3.77 39.61 3.77L40.31 3.77C40.38 3.77 40.39 4.30 40.39 4.87L40.39 9.14C40.39 11.19 40.39 11.12 40.05 11.34C39.66 11.61 38.85 12.08 37.67 12.08C35.70 12.08 34.90 11.17 34.90 9.41C34.90 8.82 34.97 3.77 35.08 3.77L35.99 3.77C36.22 3.77 36.26 3.75 36.26 3.56C36.26 3.32 36.25 3.26 36.05 3.26C35.73 3.26 34.85 3.30 34.43 3.30C34.01 3.30 33.32 3.26 33.10 3.26C32.91 3.26 32.84 3.28 32.84 3.51ZM50.41 3.51C50.41 3.72 50.48 3.79 50.68 3.79L51.49 3.77C51.59 3.77 51.63 6.61 51.63 8.55L51.63 10.42C51.63 11.30 51.62 12.18 51.58 12.18L50.97 12.18C50.75 12.18 50.68 12.19 50.68 12.39C50.68 12.63 50.72 12.68 50.92 12.68C51.04 12.68 51.87 12.64 52.29 12.64C52.71 12.64 53.48 12.68 53.80 12.68C53.97 12.68 54.00 12.61 54.00 12.40C54.00 12.24 53.97 12.18 53.80 12.18L52.99 12.18C52.92 12.18 52.84 9.18 52.84 8.37C52.84 8.30 52.84 8.26 52.95 8.26C53.34 8.26 53.94 8.27 54.24 8.27C56.48 8.32 56.62 10.00 56.62 11.68L56.62 12.49C56.62 12.61 56.67 12.64 56.77 12.64C56.77 12.64 58.21 12.68 58.69 12.68C58.86 12.68 58.91 12.64 58.91 12.53C58.91 12.24 58.86 12.18 58.70 12.18L58.06 12.18C57.96 12.18 57.93 12.14 57.90 11.31C57.82 8.99 56.45 8.34 55.54 8.05C55.40 8.01 55.43 8.01 55.54 7.95C56.13 7.69 57.44 6.94 57.44 5.63C57.44 3.63 55.75 3.21 54.35 3.21C54.03 3.21 52.74 3.29 52.32 3.29C51.90 3.29 50.92 3.26 50.69 3.26C50.51 3.26 50.41 3.28 50.41 3.51ZM52.84 7.80L52.84 4.40C52.84 4.05 52.86 3.68 52.91 3.68C53.12 3.65 53.40 3.65 53.62 3.65C54.92 3.65 56.17 4.47 56.17 5.82C56.17 6.99 55.62 7.57 54.96 7.88C54.92 7.90 54.88 7.90 54.81 7.90C54.33 7.88 53.62 7.88 53.02 7.87C52.85 7.87 52.84 7.85 52.84 7.80ZM76.19 3.51C76.19 3.75 76.27 3.79 76.44 3.79L77.29 3.77C77.35 3.77 77.41 5.52 77.41 7.11L77.41 11.63C77.41 11.93 77.39 12.18 77.36 12.18L76.64 12.18C76.41 12.18 76.34 12.19 76.34 12.39C76.34 12.63 76.37 12.68 76.57 12.68C76.69 12.68 77.64 12.64 78.06 12.64C78.25 12.64 78.76 12.67 79.41 12.67C80.96 12.67 83.37 12.43 83.37 10.23C83.37 8.27 81.55 7.94 80.86 7.84C80.78 7.83 80.77 7.83 80.77 7.81C80.77 7.80 80.81 7.78 80.88 7.76C81.52 7.52 82.96 6.90 82.96 5.54C82.96 3.81 81.49 3.25 79.81 3.25C79.24 3.25 78.64 3.29 78.09 3.29C77.67 3.29 76.66 3.26 76.44 3.26C76.26 3.26 76.19 3.28 76.19 3.51ZM78.64 8.19C78.64 8.12 78.64 8.08 78.75 8.08L79.23 8.08C79.84 8.08 80.49 8.09 80.86 8.22C81.73 8.51 82.05 9.16 82.05 10.14C82.05 11.17 81.59 12.18 79.58 12.18L78.74 12.18C78.65 12.18 78.64 9.02 78.64 8.19ZM78.64 7.59L78.64 6.92C78.64 5.87 78.65 3.71 78.69 3.68C78.75 3.65 79.06 3.63 79.27 3.63C80.68 3.63 81.70 4.41 81.70 5.77C81.70 6.92 80.98 7.46 80.35 7.66C80.26 7.69 80.16 7.70 80.08 7.70C80.00 7.70 79.86 7.69 79.62 7.69L78.82 7.69C78.64 7.69 78.64 7.67 78.64 7.59ZM91.48 8.15C91.48 11.17 93.81 12.80 96.07 12.80C98.85 12.80 100.83 10.89 100.83 8.06C100.83 5.33 99.08 3.11 96.28 3.11C93.67 3.11 91.48 5.10 91.48 8.15ZM92.88 7.77C92.88 5.64 94.16 3.58 96.14 3.58C98.38 3.58 99.46 5.81 99.46 7.94C99.46 10.08 98.35 12.32 96.08 12.32C94.09 12.32 92.88 10.28 92.88 7.77ZM109.00 8.15C109.00 11.17 111.34 12.80 113.60 12.80C116.38 12.80 118.36 10.89 118.36 8.06C118.36 5.33 116.61 3.11 113.81 3.11C111.20 3.11 109.00 5.10 109.00 8.15ZM110.40 7.77C110.40 5.64 111.69 3.58 113.67 3.58C115.91 3.58 116.98 5.81 116.98 7.94C116.98 10.08 115.88 12.32 113.61 12.32C111.62 12.32 110.40 10.28 110.40 7.77ZM126.46 12.39C126.46 12.63 126.48 12.68 126.67 12.68C126.99 12.68 127.89 12.64 128.31 12.64C128.73 12.64 129.68 12.68 130.00 12.68C130.17 12.68 130.19 12.61 130.19 12.40C130.19 12.24 130.16 12.18 129.99 12.18L128.98 12.18C128.88 12.18 128.86 10.12 128.86 8.46C128.86 8.30 128.86 8.30 129.02 8.30L129.29 8.30C129.50 8.30 129.50 8.32 129.57 8.40L132.61 12.00C132.71 12.11 132.78 12.18 132.57 12.18L132.10 12.18C131.92 12.18 131.85 12.19 131.85 12.39C131.85 12.63 131.85 12.68 132.05 12.68C132.37 12.68 133.07 12.64 133.49 12.64C133.91 12.64 134.60 12.68 134.92 12.68C135.09 12.68 135.09 12.61 135.09 12.40C135.09 12.24 135.09 12.18 134.92 12.18L134.69 12.18C134.51 12.18 134.41 12.10 134.29 11.96L130.52 7.62C130.38 7.45 130.35 7.50 130.48 7.36C130.93 6.83 133.46 3.77 133.53 3.77L134.20 3.77C134.43 3.77 134.46 3.75 134.46 3.56C134.46 3.32 134.46 3.26 134.26 3.26C134.06 3.26 133.62 3.30 133.10 3.30C132.57 3.30 132.09 3.26 131.87 3.26C131.68 3.26 131.59 3.28 131.59 3.51C131.59 3.75 131.70 3.77 131.87 3.77L132.43 3.77C132.59 3.77 132.59 3.84 132.48 3.99C131.95 4.66 129.60 7.92 129.30 7.92L129.00 7.92C128.86 7.92 128.86 7.88 128.86 7.69L128.86 5.94C128.86 5.21 128.93 3.77 129.02 3.77L129.79 3.77C130.02 3.77 130.06 3.75 130.06 3.56C130.06 3.32 130.05 3.26 129.85 3.26C129.53 3.26 128.76 3.30 128.34 3.30C127.75 3.30 127.09 3.26 126.87 3.26C126.69 3.26 126.59 3.28 126.59 3.51C126.59 3.75 126.70 3.77 126.87 3.77L127.51 3.77C127.57 3.77 127.60 4.86 127.60 5.78L127.60 9.84C127.60 11.00 127.58 12.18 127.50 12.18L126.76 12.18C126.53 12.18 126.46 12.19 126.46 12.39ZM142.77 5.77C142.77 9.07 147.76 8.20 147.76 10.65C147.76 11.59 146.92 12.31 145.94 12.31C145.11 12.31 143.51 11.83 143.49 11.47L143.40 10.15C143.39 9.97 143.32 9.91 143.14 9.91L143.07 9.91C142.86 9.91 142.86 10.00 142.86 10.12C142.86 10.32 142.97 11.66 143.00 12.17C143.01 12.38 144.27 12.85 145.81 12.85C147.38 12.85 148.99 11.87 148.99 10.11C148.99 6.79 144.02 7.87 144.02 5.32C144.02 4.31 144.80 3.56 145.84 3.56C146.86 3.56 147.95 4.58 147.95 4.89C147.95 5.01 147.91 5.73 147.91 5.78C147.91 5.92 147.95 5.99 148.22 5.99C148.46 5.99 148.47 5.94 148.47 5.75C148.47 5.04 148.55 3.68 148.55 3.53C148.55 3.30 148.51 3.29 148.25 3.29C148.02 3.29 148.01 3.32 147.99 3.53C147.99 3.61 147.98 3.78 147.94 3.78C147.88 3.78 147.80 3.74 147.73 3.68C146.93 3.14 146.31 3.08 145.81 3.08C144.28 3.08 142.77 4.17 142.77 5.77ZM166.75 12.39C166.75 12.63 166.75 12.68 166.95 12.68C167.27 12.68 168.21 12.64 168.63 12.64C169.05 12.64 169.88 12.68 170.20 12.68C170.37 12.68 170.37 12.61 170.37 12.40C170.37 12.24 170.37 12.18 170.20 12.18L169.27 12.18C169.19 12.18 169.15 9.93 169.15 8.20C169.15 8.01 169.15 8.01 169.27 8.01L174.51 8.01C174.58 8.01 174.59 8.01 174.59 8.18L174.59 9.91C174.59 11.05 174.58 12.18 174.52 12.18L173.75 12.18C173.53 12.18 173.49 12.19 173.49 12.39C173.49 12.63 173.50 12.68 173.70 12.68C174.02 12.68 174.86 12.64 175.28 12.64C175.70 12.64 176.29 12.68 176.61 12.68C176.78 12.68 176.79 12.61 176.79 12.40C176.79 12.24 176.78 12.18 176.61 12.18L175.87 12.18C175.83 12.18 175.81 9.27 175.81 7.04C175.81 5.40 175.81 3.70 175.85 3.70L176.47 3.70C176.69 3.70 176.74 3.68 176.74 3.49C176.74 3.25 176.72 3.19 176.53 3.19C176.39 3.19 175.76 3.23 175.17 3.23C174.50 3.23 173.89 3.19 173.67 3.19C173.47 3.19 173.45 3.22 173.45 3.44C173.45 3.67 173.52 3.70 173.68 3.70L174.48 3.70C174.54 3.70 174.59 4.79 174.59 5.71L174.59 7.42C174.59 7.59 174.59 7.59 174.43 7.59L169.32 7.59C169.15 7.59 169.15 7.59 169.15 7.38C169.15 6.96 169.13 6.23 169.13 5.53C169.13 4.66 169.15 3.70 169.20 3.70L169.97 3.70C170.20 3.70 170.24 3.68 170.24 3.49C170.24 3.25 170.23 3.19 170.03 3.19C169.71 3.19 169.12 3.23 168.52 3.23C167.93 3.23 167.44 3.19 167.22 3.19C167.03 3.19 166.94 3.21 166.94 3.44C166.94 3.68 167.05 3.70 167.22 3.70L167.83 3.70C167.89 3.70 167.90 5.59 167.90 7.18L167.90 8.61C167.90 10.08 167.89 12.18 167.82 12.18L167.01 12.18C166.78 12.18 166.75 12.19 166.75 12.39ZM184.90 8.15C184.90 11.17 187.24 12.80 189.49 12.80C192.28 12.80 194.25 10.89 194.25 8.06C194.25 5.33 192.50 3.11 189.70 3.11C187.10 3.11 184.90 5.10 184.90 8.15ZM186.30 7.77C186.30 5.64 187.59 3.58 189.56 3.58C191.80 3.58 192.88 5.81 192.88 7.94C192.88 10.08 191.77 12.32 189.50 12.32C187.52 12.32 186.30 10.28 186.30 7.77ZM202.29 12.39C202.29 12.63 202.31 12.68 202.51 12.68C202.75 12.68 203.25 12.64 203.67 12.64C204.09 12.64 204.58 12.68 204.90 12.68C205.07 12.68 205.10 12.61 205.10 12.40C205.10 12.24 205.07 12.18 204.90 12.18L203.94 12.18C203.88 12.18 203.87 11.54 203.87 10.79C203.87 8.96 203.91 6.13 203.98 4.28C204.01 3.88 204.04 3.91 204.18 4.27L207.44 12.32C207.54 12.54 207.61 12.74 207.72 12.74C207.82 12.74 207.89 12.63 207.97 12.45C208.31 11.79 208.49 11.75 208.75 11.09L211.34 4.47C211.47 4.16 211.51 4.02 211.53 4.47C211.55 5.66 211.60 8.47 211.60 9.74C211.60 10.99 211.55 12.18 211.50 12.18L210.87 12.18C210.64 12.18 210.57 12.19 210.57 12.39C210.57 12.63 210.60 12.68 210.80 12.68C210.99 12.68 211.69 12.64 212.30 12.64C212.72 12.64 213.47 12.68 213.79 12.68C213.96 12.68 213.99 12.61 213.99 12.40C213.99 12.22 213.93 12.18 213.77 12.18L213.04 12.18C212.93 12.18 212.83 8.44 212.83 6.03L212.83 4.77C212.83 4.17 212.86 3.77 212.90 3.70L213.56 3.70C213.78 3.70 213.82 3.68 213.82 3.49C213.82 3.25 213.81 3.19 213.61 3.19C213.29 3.19 212.60 3.23 212.18 3.23L211.51 3.23C211.29 3.23 211.26 3.29 211.15 3.58L208.40 10.72C208.32 10.95 208.29 11.02 208.18 10.74L205.24 3.40C205.17 3.22 205.11 3.19 204.97 3.19C204.89 3.19 204.40 3.23 204.09 3.23C203.59 3.23 202.73 3.19 202.54 3.19C202.40 3.19 202.40 3.26 202.40 3.47C202.40 3.64 202.40 3.70 202.54 3.70L203.24 3.70C203.50 3.70 203.50 3.72 203.50 3.84C203.50 4.82 203.29 9.94 203.25 10.79C203.21 11.55 203.21 12.18 203.15 12.18L202.58 12.18C202.36 12.18 202.29 12.19 202.29 12.39ZM221.89 12.39C221.89 12.63 221.91 12.68 222.11 12.68C222.43 12.68 223.40 12.64 223.82 12.64C224.24 12.64 228.75 12.68 229.07 12.68C229.19 12.68 229.35 12.66 229.35 12.49C229.35 12.07 229.39 11.23 229.39 10.53C229.39 10.39 229.24 10.39 229.11 10.39C229.00 10.39 228.87 10.39 228.87 10.51C228.86 11.06 228.86 11.41 228.83 11.76C228.80 12.01 228.80 12.04 228.70 12.04C228.55 12.04 225.92 12.08 224.42 12.08C224.35 12.08 224.31 10.11 224.27 8.26C224.27 8.06 224.31 8.09 224.45 8.09L226.73 8.09C227.43 8.09 227.46 8.20 227.46 8.30L227.46 9.00C227.46 9.14 227.64 9.14 227.75 9.14C227.85 9.14 227.98 9.13 227.98 9.02C227.98 8.83 227.95 8.33 227.95 7.83C227.95 7.32 227.98 6.83 227.98 6.71C227.98 6.59 227.84 6.58 227.74 6.58C227.63 6.58 227.46 6.59 227.46 6.72L227.46 7.45C227.46 7.62 227.01 7.63 226.73 7.63L224.39 7.63C224.28 7.63 224.27 7.63 224.27 7.45C224.25 6.75 224.24 6.06 224.24 5.46C224.24 5.12 224.24 3.71 224.32 3.71C225.55 3.71 228.06 3.75 228.06 3.81C228.06 3.99 228.02 4.83 228.02 4.89C228.02 5.04 228.09 5.10 228.27 5.10C228.47 5.10 228.54 5.08 228.54 4.94C228.54 3.85 228.59 3.36 228.59 3.09C228.59 2.91 228.51 2.90 228.31 2.90C228.12 2.90 228.12 2.95 228.09 3.11C228.07 3.25 228.14 3.25 227.23 3.25C226.62 3.25 224.48 3.29 223.71 3.29C223.22 3.29 222.28 3.25 222.18 3.25C222.05 3.25 222.00 3.30 222.00 3.49C222.00 3.72 222.07 3.74 222.24 3.74L222.89 3.74C222.95 3.74 223.02 4.79 223.02 5.71C223.02 5.80 223.08 8.27 223.08 9.83L223.08 11.17C223.08 11.84 223.05 12.18 223.02 12.18L222.17 12.18C221.94 12.18 221.89 12.21 221.89 12.39Z"></path></g></svg>