<svg width="650" height="650" viewBox="0 0 650 650" fill="none" xmlns="http://www.w3.org/2000/svg">
<path d="M291.667 25H358.333C376.743 25 391.667 39.924 391.667 58.3333V77.293C391.667 91.553 401.237 103.942 414.407 109.409C427.583 114.879 442.923 112.795 453.01 102.708L466.42 89.297C479.437 76.2793 500.543 76.2793 513.56 89.297L560.7 136.437C573.72 149.455 573.717 170.56 560.7 183.578L547.293 196.987C537.203 207.074 535.12 222.416 540.59 235.591C546.057 248.762 558.447 258.333 572.71 258.333H591.667C610.077 258.333 625 273.257 625 291.667V358.333C625 376.743 610.077 391.667 591.667 391.667H572.707C558.447 391.667 546.06 401.237 540.59 414.407C535.12 427.583 537.203 442.923 547.293 453.01L560.7 466.42C573.72 479.437 573.72 500.543 560.7 513.56L513.56 560.7C500.543 573.72 479.437 573.72 466.42 560.7L453.01 547.293C442.923 537.203 427.583 535.12 414.407 540.59C401.237 546.06 391.667 558.447 391.667 572.707V591.667C391.667 610.077 376.743 625 358.333 625H291.667C273.257 625 258.333 610.077 258.333 591.667V572.71C258.333 558.447 248.762 546.057 235.591 540.59C222.416 535.12 207.074 537.203 196.987 547.293L183.577 560.7C170.56 573.72 149.454 573.72 136.437 560.7L89.2963 513.56C76.279 500.543 76.279 479.437 89.2963 466.42L102.708 453.01C112.795 442.923 114.879 427.583 109.409 414.407C103.942 401.237 91.553 391.667 77.293 391.667H58.3333C39.924 391.667 25 376.743 25 358.333V291.667C25 273.257 39.924 258.333 58.3333 258.333H77.2923C91.5527 258.333 103.942 248.763 109.41 235.592C114.88 222.417 112.795 207.076 102.708 196.989L89.297 183.578C76.2793 170.56 76.2793 149.455 89.297 136.438L136.437 89.297C149.455 76.2797 170.56 76.2797 183.578 89.297L196.989 102.708C207.076 112.795 222.417 114.88 235.592 109.41C248.763 103.942 258.333 91.5527 258.333 77.292V58.3333C258.333 39.924 273.257 25 291.667 25Z" stroke="#BCBED0" stroke-width="50"/>
<path d="M391.667 325C391.667 361.82 361.82 391.667 325 391.667C288.18 391.667 258.333 361.82 258.333 325C258.333 288.18 288.18 258.333 325 258.333C361.82 258.333 391.667 288.18 391.667 325Z" stroke="#BCBED0" stroke-width="50"/>
</svg>
