<svg data-v-423bf9ae="" xmlns="http://www.w3.org/2000/svg" viewBox="0 0 468 90" class="iconLeft"><!----><!----><!----><g data-v-423bf9ae="" id="ddcdb368-0119-4348-836f-cca450d44cda" fill="#141414" transform="matrix(5.6980053264473165,0,0,5.6980053264473165,109.24336866787601,-7.735042022120943)"><path d="M1.30 14.35L5.74 14.35C7.18 14.35 8.26 13.13 8.26 11.52C8.26 9.90 7.04 9.30 6.34 9.25L6.34 9.17C6.99 9.07 7.92 8.55 7.92 7.10C7.92 5.57 6.93 4.58 5.32 4.58L1.30 4.58ZM2.48 9.81L5.38 9.81C6.38 9.81 7 10.35 7 11.33L7 11.80C7 12.78 6.38 13.31 5.38 13.31L2.48 13.31ZM2.48 5.61L5.18 5.61C6.10 5.61 6.66 6.10 6.66 6.97L6.66 7.45C6.66 8.32 6.10 8.81 5.18 8.81L2.48 8.81ZM13.06 14.52C14.99 14.52 16.32 13.03 16.32 10.74C16.32 8.44 14.99 6.96 13.06 6.96C11.13 6.96 9.80 8.44 9.80 10.74C9.80 13.03 11.13 14.52 13.06 14.52ZM13.06 13.52C11.86 13.52 11.00 12.78 11.00 11.26L11.00 10.22C11.00 8.69 11.86 7.95 13.06 7.95C14.27 7.95 15.12 8.69 15.12 10.22L15.12 11.26C15.12 12.78 14.27 13.52 13.06 13.52ZM20.90 14.52C22.83 14.52 24.16 13.03 24.16 10.74C24.16 8.44 22.83 6.96 20.90 6.96C18.97 6.96 17.64 8.44 17.64 10.74C17.64 13.03 18.97 14.52 20.90 14.52ZM20.90 13.52C19.70 13.52 18.84 12.78 18.84 11.26L18.84 10.22C18.84 8.69 19.70 7.95 20.90 7.95C22.11 7.95 22.96 8.69 22.96 10.22L22.96 11.26C22.96 12.78 22.11 13.52 20.90 13.52ZM26.01 14.35L27.13 14.35L27.13 11.77L28.21 10.67L30.60 14.35L31.96 14.35L29.02 9.98L31.70 7.13L30.34 7.13L28.29 9.32L27.19 10.56L27.13 10.56L27.13 3.99L26.01 3.99ZM33.50 14.35L34.65 14.35L34.65 6.12L34.72 6.12L35.55 7.76L37.88 12.01L40.22 7.76L41.05 6.12L41.12 6.12L41.12 14.35L42.27 14.35L42.27 4.58L40.75 4.58L37.94 9.84L37.87 9.84L35.07 4.58L33.50 4.58ZM50.64 14.35L50.64 13.37L49.81 13.37L49.81 9.39C49.81 7.87 48.78 6.96 47.04 6.96C45.74 6.96 44.87 7.60 44.48 8.37L45.15 9.00C45.54 8.34 46.12 7.92 46.98 7.92C48.13 7.92 48.69 8.48 48.69 9.51L48.69 10.22L47.26 10.22C45.16 10.22 44.18 10.98 44.18 12.33C44.18 13.68 45.08 14.52 46.61 14.52C47.61 14.52 48.38 14.06 48.69 13.17L48.76 13.17C48.85 13.85 49.18 14.35 50.01 14.35ZM46.79 13.57C45.92 13.57 45.36 13.16 45.36 12.45L45.36 12.15C45.36 11.45 45.93 11.06 47.21 11.06L48.69 11.06L48.69 12.25C48.69 12.99 47.89 13.57 46.79 13.57ZM55.23 14.35L55.23 13.37L53.76 13.37L53.76 8.11L55.34 8.11L55.34 7.13L53.76 7.13L53.76 5.12L52.75 5.12L52.75 6.47C52.75 6.96 52.60 7.13 52.12 7.13L51.45 7.13L51.45 8.11L52.64 8.11L52.64 13.16C52.64 13.86 53.06 14.35 53.83 14.35ZM59.81 14.52C61.17 14.52 62.20 13.85 62.66 12.87L61.87 12.29C61.49 13.09 60.79 13.54 59.88 13.54C58.53 13.54 57.74 12.60 57.74 11.35L57.74 11.02L62.93 11.02L62.93 10.49C62.93 8.44 61.74 6.96 59.81 6.96C57.85 6.96 56.56 8.44 56.56 10.74C56.56 13.03 57.85 14.52 59.81 14.52ZM59.81 7.90C60.96 7.90 61.73 8.75 61.73 10.02L61.73 10.18L57.74 10.18L57.74 10.08C57.74 8.82 58.59 7.90 59.81 7.90Z"></path></g><!----><g data-v-423bf9ae="" id="96a17beb-c9e1-4e28-a51f-b6acf01d8f3a" transform="matrix(3.02033690133878,0,0,3.02033690133878,0.6746095785795205,-6.44676146975133)" stroke="none" fill="#4B0F69"><circle cx="25.044" cy="25.043" r="6.956"></circle><circle cx="6.956" cy="25.043" r="6.956"></circle><path d="M.172 2.201H13.74v13.568H.172zM18.432 2.201H32v13.568H18.432z"></path></g><!----></svg>