<svg data-v-423bf9ae="" xmlns="http://www.w3.org/2000/svg" viewBox="0 0 468 90" class="iconLeft"><!----><!----><!----><g data-v-423bf9ae="" id="0a7f3163-c957-4a96-a936-41b4e88b3afa" fill="#000000" transform="matrix(5.7915059834320255,0,0,5.7915059834320255,113.75501755796861,-5.270271418849248)"><path d="M5.21 9.18L5.21 9.18Q6.31 9.37 6.86 9.93L6.86 9.93L6.86 9.93Q7.41 10.50 7.41 11.35L7.41 11.35L7.41 11.35Q7.41 12.45 6.56 13.08L6.56 13.08L6.56 13.08Q5.71 13.72 4.12 13.72L4.12 13.72L0.52 13.72L0.52 13.15L1.72 12.84L1.72 6.02L0.50 5.71L0.50 5.14L4.17 5.14L4.17 5.14Q5.73 5.14 6.44 5.69L6.44 5.69L6.44 5.69Q7.15 6.24 7.15 7.21L7.15 7.21L7.15 7.21Q7.15 8.01 6.63 8.52L6.63 8.52L6.63 8.52Q6.10 9.03 5.21 9.18L5.21 9.18ZM3.85 8.93L3.85 8.93Q4.58 8.93 5.04 8.55L5.04 8.55L5.04 8.55Q5.50 8.18 5.50 7.29L5.50 7.29L5.50 7.29Q5.50 6.59 5.12 6.25L5.12 6.25L5.12 6.25Q4.75 5.91 4.10 5.91L4.10 5.91L4.10 5.91Q3.84 5.91 3.62 5.96L3.62 5.96L3.62 5.96Q3.40 6.01 3.36 6.01L3.36 6.01L3.36 8.93L3.85 8.93ZM3.36 12.85L3.36 12.85Q3.65 12.95 4.10 12.95L4.10 12.95L4.10 12.95Q4.82 12.95 5.26 12.54L5.26 12.54L5.26 12.54Q5.70 12.12 5.70 11.27L5.70 11.27L5.70 11.27Q5.70 10.46 5.19 10.04L5.19 10.04L5.19 10.04Q4.68 9.63 3.81 9.63L3.81 9.63L3.36 9.63L3.36 12.85ZM11.93 6.71L11.93 6.71Q13.69 6.71 14.52 7.69L14.52 7.69L14.52 7.69Q15.34 8.68 15.34 10.30L15.34 10.30L15.34 10.30Q15.34 11.89 14.50 12.87L14.50 12.87L14.50 12.87Q13.66 13.86 11.93 13.86L11.93 13.86L11.93 13.86Q10.23 13.86 9.40 12.87L9.40 12.87L9.40 12.87Q8.57 11.87 8.57 10.30L8.57 10.30L8.57 10.30Q8.57 8.68 9.39 7.69L9.39 7.69L9.39 7.69Q10.21 6.71 11.93 6.71L11.93 6.71ZM13.57 10.28L13.57 10.28Q13.57 8.97 13.20 8.26L13.20 8.26L13.20 8.26Q12.84 7.55 11.90 7.55L11.90 7.55L11.90 7.55Q11.02 7.55 10.68 8.26L10.68 8.26L10.68 8.26Q10.33 8.97 10.33 10.28L10.33 10.28L10.33 10.28Q10.33 11.56 10.70 12.29L10.70 12.29L10.70 12.29Q11.06 13.01 11.98 13.01L11.98 13.01L11.98 13.01Q12.89 13.01 13.23 12.29L13.23 12.29L13.23 12.29Q13.57 11.58 13.57 10.28L13.57 10.28ZM19.56 6.71L19.56 6.71Q21.32 6.71 22.15 7.69L22.15 7.69L22.15 7.69Q22.97 8.68 22.97 10.30L22.97 10.30L22.97 10.30Q22.97 11.89 22.13 12.87L22.13 12.87L22.13 12.87Q21.29 13.86 19.56 13.86L19.56 13.86L19.56 13.86Q17.86 13.86 17.03 12.87L17.03 12.87L17.03 12.87Q16.20 11.87 16.20 10.30L16.20 10.30L16.20 10.30Q16.20 8.68 17.02 7.69L17.02 7.69L17.02 7.69Q17.84 6.71 19.56 6.71L19.56 6.71ZM21.20 10.28L21.20 10.28Q21.20 8.97 20.83 8.26L20.83 8.26L20.83 8.26Q20.47 7.55 19.53 7.55L19.53 7.55L19.53 7.55Q18.65 7.55 18.30 8.26L18.30 8.26L18.30 8.26Q17.96 8.97 17.96 10.28L17.96 10.28L17.96 10.28Q17.96 11.56 18.33 12.29L18.33 12.29L18.33 12.29Q18.69 13.01 19.61 13.01L19.61 13.01L19.61 13.01Q20.52 13.01 20.86 12.29L20.86 12.29L20.86 12.29Q21.20 11.58 21.20 10.28L21.20 10.28ZM27.31 13.09L27.31 13.72L23.66 13.72L23.66 13.10L24.82 12.82L24.82 4.75L23.66 4.59L23.66 4.05L25.93 3.50L26.46 3.50L26.46 12.82L27.31 13.09ZM31.60 13.09L31.60 13.72L28.18 13.72L28.18 13.09L28.78 12.85L26.59 10.11L28.57 7.67L27.57 7.43L27.57 6.83L31.15 6.83L31.15 7.43L29.83 7.70L28.18 9.69L30.72 12.82L31.60 13.09ZM34.96 13.15L34.96 13.72L31.70 13.72L31.70 13.15L32.86 12.84L33.11 6.01L31.95 5.71L31.95 5.14L34.75 5.14L37.02 11.79L39.23 5.14L42.13 5.14L42.13 5.71L40.92 6.02L41.20 12.84L42.42 13.15L42.42 13.72L38.44 13.72L38.44 13.15L39.65 12.84L39.44 7.28L37.23 13.72L36.30 13.86L33.95 7.29L33.75 12.84L34.96 13.15ZM45.96 7.66L45.96 7.66Q45.37 7.66 44.83 7.84L44.83 7.84L44.51 9.02L43.82 9.02L43.58 7.22L43.58 7.22Q44.94 6.71 46.40 6.71L46.40 6.71L46.40 6.71Q47.49 6.71 48.05 7.07L48.05 7.07L48.05 7.07Q48.61 7.43 48.61 8.37L48.61 8.37L48.61 12.68L49.76 13.02L49.76 13.55L49.76 13.55Q48.86 13.79 48.24 13.79L48.24 13.79L48.24 13.79Q47.81 13.79 47.46 13.59L47.46 13.59L47.46 13.59Q47.11 13.40 47.01 13.03L47.01 13.03L47.01 13.03Q46.44 13.44 45.92 13.65L45.92 13.65L45.92 13.65Q45.40 13.86 44.81 13.86L44.81 13.86L44.81 13.86Q44.07 13.86 43.64 13.38L43.64 13.38L43.64 13.38Q43.22 12.89 43.22 12.14L43.22 12.14L43.22 12.14Q43.22 11.47 43.62 10.90L43.62 10.90L43.62 10.90Q44.02 10.33 45.01 10.14L45.01 10.14L46.97 9.76L46.97 8.71L46.97 8.71Q46.97 8.15 46.75 7.90L46.75 7.90L46.75 7.90Q46.52 7.66 45.96 7.66L45.96 7.66ZM45.92 10.72L45.92 10.72Q45.35 10.85 45.10 11.16L45.10 11.16L45.10 11.16Q44.86 11.47 44.86 11.94L44.86 11.94L44.86 11.94Q44.86 12.82 45.68 12.82L45.68 12.82L45.68 12.82Q45.98 12.82 46.34 12.69L46.34 12.69L46.34 12.69Q46.70 12.56 46.97 12.39L46.97 12.39L46.97 10.50L45.92 10.72ZM54.42 13.55L54.42 13.55Q54.00 13.68 53.37 13.76L53.37 13.76L53.37 13.76Q52.74 13.85 52.36 13.85L52.36 13.85L52.36 13.85Q51.67 13.85 51.41 13.54L51.41 13.54L51.41 13.54Q51.16 13.23 51.16 12.74L51.16 12.74L51.16 7.74L50.15 7.74L50.15 7.14L51.30 6.68L52.04 5.28L52.78 5.28L52.78 6.83L54.61 6.83L54.61 7.84L52.78 7.73L52.78 12.66L54.42 12.96L54.42 13.55ZM58.51 13.86L58.51 13.86Q56.77 13.86 56.00 12.91L56.00 12.91L56.00 12.91Q55.23 11.96 55.23 10.30L55.23 10.30L55.23 10.30Q55.23 8.44 56.08 7.57L56.08 7.57L56.08 7.57Q56.92 6.71 58.37 6.71L58.37 6.71L58.37 6.71Q59.79 6.71 60.45 7.35L60.45 7.35L60.45 7.35Q61.11 7.99 61.11 9.37L61.11 9.37L61.11 9.37Q61.11 9.84 61.07 10.22L61.07 10.22L56.99 10.22L56.99 10.60L56.99 10.60Q56.99 11.82 57.49 12.37L57.49 12.37L57.49 12.37Q57.99 12.92 58.94 12.92L58.94 12.92L58.94 12.92Q59.78 12.92 60.93 12.60L60.93 12.60L61.04 13.15L61.04 13.15Q59.98 13.86 58.51 13.86L58.51 13.86ZM57.02 9.55L59.43 9.41L59.43 9.10L59.43 9.10Q59.43 8.34 59.21 7.96L59.21 7.96L59.21 7.96Q59.00 7.57 58.44 7.57L58.44 7.57L58.44 7.57Q57.67 7.57 57.36 8.04L57.36 8.04L57.36 8.04Q57.06 8.51 57.02 9.55L57.02 9.55Z"></path></g><defs data-v-423bf9ae=""><linearGradient data-v-423bf9ae="" gradientTransform="rotate(25)" id="65d9aeac-34aa-4e2e-bf9a-a954ad19cd22" x1="0%" y1="0%" x2="100%" y2="0%"><stop data-v-423bf9ae="" offset="0%" style="stop-color: rgb(142, 66, 211); stop-opacity: 1;"></stop><stop data-v-423bf9ae="" offset="100%" style="stop-color: rgb(212, 105, 117); stop-opacity: 1;"></stop></linearGradient></defs><g data-v-423bf9ae="" id="457727cc-131f-4d5d-89c4-fe86a4c7f2b9" transform="matrix(3.02033690133878,0,0,3.02033690133878,0.6746095785795205,-6.44676146975133)" stroke="none" fill="url(#65d9aeac-34aa-4e2e-bf9a-a954ad19cd22)"><circle cx="25.044" cy="25.043" r="6.956"></circle><circle cx="6.956" cy="25.043" r="6.956"></circle><path d="M.172 2.201H13.74v13.568H.172zM18.432 2.201H32v13.568H18.432z"></path></g><!----></svg>